<svg width="25" height="24" viewBox="0 0 25 24" fill="none" xmlns="http://www.w3.org/2000/svg">
<path d="M14.5342 10.0907C15.5887 11.1452 15.5887 12.8547 14.5342 13.9091C13.4798 14.9635 11.7703 14.9635 10.7159 13.9091C9.66144 12.8547 9.66144 11.1452 10.7159 10.0907C11.7703 9.03632 13.4798 9.03632 14.5342 10.0907" stroke="#5B6975" stroke-width="1.5" stroke-linecap="round" stroke-linejoin="round"/>
<path d="M5.87511 12C5.87511 12.297 5.90211 12.594 5.93811 12.882L4.35011 14.124C3.99811 14.4 3.90211 14.893 4.12611 15.28L5.53811 17.723C5.76111 18.11 6.23511 18.273 6.65011 18.107L8.07211 17.536C8.35311 17.423 8.66611 17.468 8.91811 17.635C9.13811 17.781 9.36611 17.915 9.60211 18.035C9.87211 18.172 10.0681 18.417 10.1111 18.717L10.3281 20.23C10.3911 20.672 10.7701 21 11.2161 21H14.0331C14.4791 21 14.8581 20.672 14.9211 20.23L15.1381 18.718C15.1811 18.418 15.3791 18.171 15.6501 18.035C15.8851 17.917 16.1121 17.784 16.3311 17.639C16.5851 17.471 16.8991 17.423 17.1811 17.537L18.6001 18.107C19.0141 18.273 19.4881 18.11 19.7121 17.723L21.1241 15.28C21.3481 14.893 21.2521 14.399 20.9001 14.124L19.3121 12.882C19.3481 12.594 19.3751 12.297 19.3751 12C19.3751 11.703 19.3481 11.406 19.3121 11.118L20.9001 9.876C21.2521 9.6 21.3481 9.107 21.1241 8.72L19.7121 6.277C19.4891 5.89 19.0151 5.727 18.6001 5.893L17.1811 6.463C16.8991 6.576 16.5851 6.529 16.3311 6.361C16.1121 6.216 15.8851 6.083 15.6501 5.965C15.3791 5.829 15.1811 5.582 15.1381 5.282L14.9221 3.77C14.8591 3.328 14.4801 3 14.0341 3H11.2171C10.7711 3 10.3921 3.328 10.3291 3.77L10.1111 5.284C10.0681 5.583 9.87111 5.829 9.60211 5.966C9.36611 6.086 9.13811 6.221 8.91811 6.366C8.66511 6.532 8.35211 6.577 8.07111 6.464L6.65011 5.893C6.23511 5.727 5.76111 5.89 5.53811 6.277L4.12611 8.72C3.90211 9.107 3.99811 9.601 4.35011 9.876L5.93811 11.118C5.90211 11.406 5.87511 11.703 5.87511 12V12Z" stroke="#5B6975" stroke-width="1.5" stroke-linecap="round" stroke-linejoin="round"/>
</svg>
